 <svg fill="#ffffff" xmlns="http://www.w3.org/2000/svg" viewBox="0 0 50 50" width="32px" height="32px"><path d="M 11.5 2 C 9.5788117 2 8 3.5788117 8 5.5 L 8 44.5 C 8 46.421188 9.5788117 48 11.5 48 L 38.5 48 C 40.421188 48 42 46.421188 42 44.5 L 42 14.585938 L 29.414062 2 L 11.5 2 z M 11.5 4 L 28 4 L 28 12.5 C 28 14.421188 29.578812 16 31.5 16 L 40 16 L 40 44.5 C 40 45.340812 39.340812 46 38.5 46 L 11.5 46 C 10.659188 46 10 45.340812 10 44.5 L 10 5.5 C 10 4.6591883 10.659188 4 11.5 4 z M 30 5.4140625 L 38.585938 14 L 31.5 14 C 30.659188 14 30 13.340812 30 12.5 L 30 5.4140625 z M 18.5 24.5 A 1.5 1.5 0 0 0 17 26 A 1.5 1.5 0 0 0 18.5 27.5 A 1.5 1.5 0 0 0 20 26 A 1.5 1.5 0 0 0 18.5 24.5 z M 22 25 L 22 27 L 33 27 L 33 25 L 22 25 z M 18.5 29.5 A 1.5 1.5 0 0 0 17 31 A 1.5 1.5 0 0 0 18.5 32.5 A 1.5 1.5 0 0 0 20 31 A 1.5 1.5 0 0 0 18.5 29.5 z M 22 30 L 22 32 L 33 32 L 33 30 L 22 30 z M 18.5 34.5 A 1.5 1.5 0 0 0 17 36 A 1.5 1.5 0 0 0 18.5 37.5 A 1.5 1.5 0 0 0 20 36 A 1.5 1.5 0 0 0 18.5 34.5 z M 22 35 L 22 37 L 33 37 L 33 35 L 22 35 z"/></svg>
